<svg xmlns="http://www.w3.org/2000/svg" id="Layer_2" data-name="Layer 2" width="245.81" height="48.36" viewBox="0 0 245.81 48.36"><defs><style>      .cls-1 {        fill: #fff;      }    </style></defs><g id="Logo_Image" data-name="Logo&#xA0;Image"><path class="cls-1" d="m70.69,22.07l2.99,6.76,2.99-6.76h1.93l-4.93,10.67-4.93-10.67h1.93Zm18.48,5.05c0-3.04,2.25-5.29,5.31-5.29s5.31,2.25,5.31,5.29-2.27,5.26-5.31,5.26-5.31-2.22-5.31-5.26Zm1.79,0c0,2.46,1.74,3.72,3.53,3.72s3.53-1.28,3.53-3.72-1.69-3.74-3.53-3.74-3.53,1.3-3.53,3.74Zm25.23-11.5v16.47h-1.74V15.62h1.74Zm84.98,0v16.47h-1.74V15.62h1.74Zm-61.84,6.45h1.74v10.02h-1.74v-1.4c-.58.75-1.67,1.69-3.43,1.69-2.54,0-4.88-1.79-4.88-5.31s2.32-5.24,4.88-5.24c1.93,0,2.97,1.06,3.43,1.67v-1.42Zm-6.52,5c0,2.15,1.21,3.77,3.28,3.77s3.33-1.76,3.33-3.74c0-2.58-1.79-3.72-3.33-3.72-1.71,0-3.28,1.26-3.28,3.69Zm25.89-3.41v8.43h-1.74v-8.43h-1.06v-1.59h1.06v-3.62h1.74v3.62h1.74v1.59h-1.74Zm20.01-7.18c.68,0,1.23.56,1.23,1.23s-.56,1.23-1.23,1.23-1.23-.56-1.23-1.23.56-1.23,1.23-1.23Zm.87,5.59v10.02h-1.74v-10.02h1.74Zm46.08,7.46c-.29.56-.72,1.16-1.23,1.62-.92.82-2.05,1.23-3.33,1.23-2.41,0-4.95-1.52-4.95-5.24,0-2.99,1.84-5.31,4.85-5.31,1.96,0,3.19.97,3.79,1.84.63.89.99,2.44.94,3.77h-7.8c.02,2.08,1.45,3.41,3.19,3.41.82,0,1.47-.24,2.05-.72.46-.39.82-.89,1.04-1.38l1.45.8Zm-1.71-3.55c-.29-1.57-1.47-2.61-2.95-2.61s-2.68,1.11-2.95,2.61h5.89Zm19.81-1.59c-.24-.58-.75-1.01-1.4-1.01s-1.21.36-1.21,1.13c0,.72.48.94,1.62,1.42,1.45.6,2.13,1.06,2.51,1.55.43.53.53,1.06.53,1.62,0,2.1-1.52,3.28-3.45,3.28-.41,0-2.66-.05-3.5-2.56l1.5-.63c.19.53.77,1.64,2.03,1.64,1.13,0,1.64-.85,1.64-1.59,0-.94-.68-1.26-1.62-1.67-1.21-.53-1.98-.92-2.44-1.47-.39-.48-.46-.97-.46-1.47,0-1.76,1.23-2.8,2.92-2.8.53,0,1.96.1,2.75,1.81l-1.42.75ZM15.57,48.36H0V0l15.57,48.36Zm19.16,0h15.57V0s-15.57,48.36-15.57,48.36Zm-8.03,0L41.85.32H9.18l14.49,48.04h3.03Z"></path></g></svg>